<svg xmlns="http://www.w3.org/2000/svg" width="68" height="68" viewBox="0 0 47.801 36">
  <g id="IM_logo_2024" data-name="IM  logo 2024" transform="translate(-22 -11)">
    <rect id="Rectangle_1" data-name="Rectangle 1" width="6" height="24" transform="translate(22 23)" fill="#fff"/>
    <rect id="Rectangle_2" data-name="Rectangle 2" width="5.96" height="5.96" transform="translate(22 11.155)" fill="#fff"/>
    <path id="Path_1" data-name="Path 1" d="M141.062,29.036,153.077,11h5.948V47h-5.841V19.9L141.109,37.881,123.3,11.119h5.96Z" transform="translate(-89.225)" fill="#fff"/>
    <path id="Ellipse_1" data-name="Ellipse 1" d="M34,1A33.009,33.009,0,0,0,21.155,64.407,33.009,33.009,0,0,0,46.845,3.593,32.793,32.793,0,0,0,34,1m0-1A34,34,0,1,1,0,34,34,34,0,0,1,34,0Z" transform="translate(12 -5)" fill="#fff"/>
  </g>
</svg>
