<svg id="invest" xmlns="http://www.w3.org/2000/svg" width="39.886" height="39.886" viewBox="0 0 39.886 39.886">
  <g id="Group_3" data-name="Group 3" transform="translate(14.765 8.956)">
    <path id="Path_16" data-name="Path 16" d="M18.214,17.682H11.9V9.6h6.314a3.989,3.989,0,0,1,4.041,4.041h0A3.989,3.989,0,0,1,18.214,17.682Z" transform="translate(-11.9 -6.695)" fill="none" stroke="#fff" stroke-linecap="round" stroke-linejoin="round" stroke-miterlimit="10" stroke-width="2"/>
    <path id="Path_17" data-name="Path 17" d="M18.214,24.082H11.9V16h6.314a3.989,3.989,0,0,1,4.041,4.041h0A3.989,3.989,0,0,1,18.214,24.082Z" transform="translate(-11.9 -5.013)" fill="none" stroke="#fff" stroke-linecap="round" stroke-linejoin="round" stroke-miterlimit="10" stroke-width="2"/>
    <g id="Group_1" data-name="Group 1" transform="translate(2.905)">
      <line id="Line_16" data-name="Line 16" y1="2.905" fill="none" stroke="#fff" stroke-linecap="round" stroke-linejoin="round" stroke-miterlimit="10" stroke-width="2"/>
      <line id="Line_17" data-name="Line 17" y1="2.905" transform="translate(2.905)" fill="none" stroke="#fff" stroke-linecap="round" stroke-linejoin="round" stroke-miterlimit="10" stroke-width="2"/>
    </g>
    <g id="Group_2" data-name="Group 2" transform="translate(2.905 19.069)">
      <line id="Line_18" data-name="Line 18" y1="2.905" fill="none" stroke="#fff" stroke-linecap="round" stroke-linejoin="round" stroke-miterlimit="10" stroke-width="2"/>
      <line id="Line_19" data-name="Line 19" y1="2.905" transform="translate(2.905)" fill="none" stroke="#fff" stroke-linecap="round" stroke-linejoin="round" stroke-miterlimit="10" stroke-width="2"/>
    </g>
  </g>
  <g id="Group_4" data-name="Group 4" transform="translate(1 1)">
    <circle id="Ellipse_1" data-name="Ellipse 1" cx="18.943" cy="18.943" r="18.943" fill="none" stroke="#fff" stroke-linecap="round" stroke-linejoin="round" stroke-miterlimit="10" stroke-width="2"/>
    <circle id="Ellipse_2" data-name="Ellipse 2" cx="13.891" cy="13.891" r="13.891" transform="translate(5.051 5.051)" fill="none" stroke="#fff" stroke-linecap="round" stroke-linejoin="round" stroke-miterlimit="10" stroke-width="2"/>
  </g>
</svg>
