<?xml version="1.0" ?><svg viewBox="0 0 64 64" xmlns="http://www.w3.org/2000/svg"><g id="a"/><g id="b"/><g id="c"/><g id="d"/><g id="e"/><g id="f"/><g id="g"/><g id="h"/><g id="i"/><g id="j"/><g id="k"/><g id="l"/><g id="m"/><g id="n"/><g id="o"/><g id="p"/><g id="q"/><g id="r"/><g id="s"/><g id="t"/><g id="u"/><g id="v"><path d="M7.69,49.33c-.76-.21-1.55-.1-2.23,.29-.68,.39-1.16,1.02-1.36,1.78-.42,1.56,.51,3.17,2.07,3.59l14.18,3.8c.75,.2,1.55,.1,2.22-.29,.68-.39,1.16-1.02,1.37-1.78,.42-1.56-.51-3.17-2.07-3.59l-2.43-.65,.11-2.82c2.51-.14,4.99-.91,6.99-2.31,2.56-1.79,4.12-4.75,4.34-7.22l.26-2.94h0l.62-7.03c.13-1.43-.79-2.73-2.17-3.1l-15.54-4.16c-1.38-.37-2.83,.3-3.43,1.6l-4.21,9.07c-1.22,2.62-1.17,5.62,.14,8.42,1.03,2.21,2.81,4.08,4.92,5.45l-1.33,2.54-2.43-.65Zm14.32,6.87c-.06,.24-.22,.44-.43,.57s-.47,.16-.71,.09l-14.18-3.8c-.5-.13-.79-.65-.66-1.14,.06-.24,.22-.44,.43-.57,.14-.08,.3-.12,.46-.12,.08,0,.16,.01,.25,.03l14.18,3.8c.5,.13,.79,.65,.66,1.14Zm6.87-16.26c-.08,.88-.32,1.63-.62,2.32-1.75,.6-3.29,.62-4.56,0-.54-.26-1.02-.67-1.48-1.16,1.99-1.44,4.25-2.96,6.83-3.05l-.17,1.89ZM12.43,25.34h0c.16-.34,.5-.54,.86-.54,.08,0,.16,0,.24,.03l15.54,4.16c.44,.12,.74,.54,.7,1l-.54,6.08c-3.13,.02-5.79,1.69-8.17,3.42-.42-.76-.81-1.62-1.13-2.65-2.21-7.18-5.96-8.7-8.82-8.66l1.32-2.84Zm-4.07,15.8c-.75-1.6-1.38-4.07-.14-6.74l1.9-4.09c4.43-.78,6.75,3.37,7.9,7.11,.82,2.66,2.29,5.43,4.81,6.65,.92,.45,1.92,.67,2.99,.67,.26,0,.55-.06,.82-.09-.41,.41-.84,.77-1.24,1.05-2.67,1.87-6.33,2.48-9.56,1.62-3.23-.87-6.09-3.24-7.47-6.18Zm4.84,7.29c.69,.32,1.38,.63,2.11,.83,.73,.2,1.48,.3,2.24,.37l-.09,2.31-5.35-1.43,1.09-2.08Z"/><path d="M57.46,41.99c1.31-2.81,1.36-5.8,.14-8.43l-4.21-9.07c-.61-1.3-2.05-1.97-3.43-1.6l-15.54,4.16c-1.38,.37-2.3,1.68-2.17,3.1l.88,9.96c.23,2.54,1.75,5.41,4.34,7.22,2,1.4,4.47,2.17,6.98,2.31l.11,2.82-2.43,.65c-1.56,.42-2.49,2.03-2.07,3.59,.2,.76,.69,1.39,1.36,1.78,.7,.4,1.49,.49,2.23,.29l14.18-3.8c1.56-.42,2.49-2.03,2.07-3.59-.2-.76-.69-1.39-1.36-1.78-.68-.39-1.47-.5-2.23-.29l-2.43,.65-1.33-2.54c2.1-1.37,3.88-3.24,4.92-5.45Zm-22.52-13l15.54-4.16c.08-.02,.16-.03,.24-.03,.36,0,.71,.21,.86,.54h0l1.32,2.84c-2.86-.04-6.61,1.48-8.82,8.66-.32,1.03-.71,1.89-1.13,2.65-2.41-1.75-5.06-3.4-8.17-3.42l-.54-6.08c-.04-.45,.26-.88,.7-1Zm.19,10.96l-.17-1.89c2.59,.09,4.88,1.64,6.83,3.06-.46,.48-.94,.9-1.48,1.16-1.27,.61-2.81,.59-4.56,0-.3-.69-.54-1.44-.62-2.32Zm2.25,4.71c.27,.03,.55,.09,.82,.09,1.06,0,2.06-.22,2.99-.67,2.51-1.22,3.99-3.98,4.81-6.65,1.15-3.74,3.46-7.89,7.9-7.11l1.9,4.09c1.24,2.66,.61,5.13-.14,6.74-1.38,2.95-4.24,5.32-7.47,6.18-3.23,.86-6.89,.24-9.56-1.62-.4-.28-.83-.64-1.24-1.05Zm19.45,6.61c.25-.06,.49-.03,.71,.09s.37,.33,.43,.57c.13,.5-.16,1.01-.66,1.14l-14.18,3.8c-.24,.06-.49,.03-.71-.09-.21-.12-.37-.33-.43-.57-.13-.5,.16-1.01,.66-1.14l14.18-3.8Zm-4.93-.75l-5.35,1.43-.09-2.31c.76-.07,1.51-.18,2.24-.37,.73-.2,1.42-.51,2.11-.83l1.09,2.08Z"/><path d="M20.93,12.76c-1.75,.92-2.85,2.8-2.68,4.57,.16,1.67,1.4,2.97,3.4,3.58h0c.85,.26,1.48,.64,1.88,1.15,1.36,1.72,2.75,1.54,3.59,.21,2.08-3.31,1.67-6.55-1.12-8.89-1.5-1.26-3.4-1.49-5.07-.61Zm4.51,8.43c-.08-.08-.19-.19-.33-.37-.65-.83-1.62-1.44-2.87-1.82-.85-.26-1.89-.79-1.99-1.85-.09-.96,.6-2.08,1.62-2.61,.55-.29,1.66-.63,2.86,.37,2.03,1.7,2.27,3.82,.72,6.29Z"/><path d="M34.48,22.89c.53,1.44,1.82,1.99,3.56,.55,.49-.41,1.19-.65,2.08-.73,2.09-.18,3.57-1.19,4.07-2.79,.54-1.7-.15-3.77-1.67-5.03-1.46-1.21-3.36-1.38-5.09-.46-3.22,1.71-4.29,4.79-2.95,8.46Zm5.2-7.05c.71,0,1.25,.33,1.56,.59,.88,.73,1.33,1.98,1.04,2.89-.32,1.02-1.45,1.32-2.33,1.4-1.3,.11-2.37,.51-3.19,1.18-.18,.15-.31,.24-.4,.3-1-2.74-.32-4.76,2.01-6,.48-.26,.92-.35,1.31-.35Z"/><path d="M36.54,5.77c-1.62-.97-3.53-.85-5.1,.32-2.92,2.18-3.51,5.39-1.62,8.81,.76,1.37,2.12,1.66,3.6,0,.42-.48,1.08-.83,1.94-1.04h0c2.04-.49,3.35-1.72,3.6-3.38,.27-1.76-.72-3.7-2.42-4.72Zm-1.65,6.15c-1.27,.31-2.27,.86-2.97,1.66-.15,.17-.27,.28-.35,.35-1.41-2.55-1.05-4.65,1.07-6.24,.58-.43,1.12-.58,1.59-.58,.54,0,.99,.2,1.28,.37,.98,.59,1.61,1.75,1.47,2.7-.16,1.05-1.23,1.52-2.09,1.73Z"/><path d="M11.09,39.26c-.16-.53-.71-.83-1.24-.68-.53,.16-.83,.71-.68,1.24,.46,1.57,1.44,2.97,2.91,4.16,.19,.15,.41,.22,.63,.22,.29,0,.58-.13,.78-.37,.35-.43,.28-1.06-.14-1.41-1.15-.94-1.91-2-2.25-3.17Z"/><path d="M9.97,36.23c.11,.04,.22,.06,.33,.06,.41,0,.8-.26,.94-.67,.19-.55,.39-.89,.4-.9,.28-.47,.13-1.08-.34-1.37-.47-.29-1.09-.14-1.37,.34-.03,.05-.31,.52-.57,1.28-.18,.52,.09,1.09,.61,1.27Z"/></g><g id="w"/><g id="x"/><g id="y"/><g id="a`"/><g id="aa"/><g id="ab"/><g id="ac"/><g id="ad"/><g id="ae"/><g id="af"/><g id="ag"/><g id="ah"/><g id="ai"/><g id="aj"/><g id="ak"/><g id="al"/><g id="am"/><g id="an"/><g id="ao"/><g id="ap"/><g id="aq"/><g id="ar"/><g id="as"/><g id="at"/><g id="au"/><g id="av"/><g id="aw"/><g id="ax"/></svg>