<svg xmlns="http://www.w3.org/2000/svg" width="38" height="38" viewBox="0 0 38 38">
  <g id="news-white" transform="translate(-0.002)">
    <rect id="Rectangle_1" data-name="Rectangle 1" width="38" height="38" transform="translate(0.002)" fill="none"/>
    <path id="Path_8" data-name="Path 8" d="M29.693,36.8H7.769s-5.846.07-5.846-5.887V3.769" transform="translate(-0.462 -0.905)" fill="none" stroke="#fff" stroke-linejoin="round" stroke-miterlimit="10" stroke-width="2"/>
    <path id="Path_9" data-name="Path 9" d="M37,30.954C37,36.8,31.914,36.8,31.914,36.8s-5.846-.021-5.846-5.887V3.769H1.923V30.912c0,5.957,5.846,5.887,5.846,5.887H31.154" transform="translate(-0.462 -0.905)" fill="none" stroke="#fff" stroke-linejoin="round" stroke-miterlimit="10" stroke-width="2"/>
    <path id="Path_10" data-name="Path 10" d="M40.385,31.877V13.462a2.922,2.922,0,0,1,2.923-2.923c2.855,0,2.924,2.964,2.924,2.964V32.579" transform="translate(-9.692 -2.529)" fill="none" stroke="#fff" stroke-linecap="round" stroke-linejoin="round" stroke-miterlimit="10" stroke-width="2"/>
    <line id="Line_1" data-name="Line 1" x1="7.2" transform="translate(26.415 7.976)" fill="none" stroke="#fff" stroke-linejoin="round" stroke-miterlimit="10" stroke-width="2"/>
    <line id="Line_2" data-name="Line 2" x2="5.145" transform="translate(5.846 21.28)" fill="none" stroke="#fff" stroke-linecap="round" stroke-linejoin="round" stroke-miterlimit="10" stroke-width="2"/>
    <line id="Line_3" data-name="Line 3" x2="5.145" transform="translate(5.846 18.24)" fill="none" stroke="#fff" stroke-linecap="round" stroke-linejoin="round" stroke-miterlimit="10" stroke-width="2"/>
    <line id="Line_4" data-name="Line 4" x2="5.145" transform="translate(5.846 24.32)" fill="none" stroke="#fff" stroke-linecap="round" stroke-linejoin="round" stroke-miterlimit="10" stroke-width="2"/>
    <line id="Line_5" data-name="Line 5" x2="5.145" transform="translate(5.846 27.36)" fill="none" stroke="#fff" stroke-linecap="round" stroke-linejoin="round" stroke-miterlimit="10" stroke-width="2"/>
    <line id="Line_6" data-name="Line 6" x2="5.145" transform="translate(5.846 30.4)" fill="none" stroke="#fff" stroke-linecap="round" stroke-linejoin="round" stroke-miterlimit="10" stroke-width="2"/>
    <line id="Line_7" data-name="Line 7" x2="5.847" transform="translate(14.615 21.28)" fill="none" stroke="#fff" stroke-linecap="round" stroke-linejoin="round" stroke-miterlimit="10" stroke-width="2"/>
    <line id="Line_8" data-name="Line 8" x2="5.847" transform="translate(14.615 18.24)" fill="none" stroke="#fff" stroke-linecap="round" stroke-linejoin="round" stroke-miterlimit="10" stroke-width="2"/>
    <line id="Line_9" data-name="Line 9" x2="14.967" transform="translate(5.495 12.16)" fill="none" stroke="#fff" stroke-linecap="round" stroke-linejoin="round" stroke-miterlimit="10" stroke-width="2"/>
    <line id="Line_10" data-name="Line 10" x2="14.967" transform="translate(5.495 9.12)" fill="none" stroke="#fff" stroke-linecap="round" stroke-linejoin="round" stroke-miterlimit="10" stroke-width="2"/>
    <line id="Line_11" data-name="Line 11" x2="5.847" transform="translate(14.615 24.145)" fill="none" stroke="#fff" stroke-linecap="round" stroke-linejoin="round" stroke-miterlimit="10" stroke-width="2"/>
    <line id="Line_12" data-name="Line 12" x2="5.847" transform="translate(14.615 27.185)" fill="none" stroke="#fff" stroke-linecap="round" stroke-linejoin="round" stroke-miterlimit="10" stroke-width="2"/>
    <line id="Line_13" data-name="Line 13" x2="5.847" transform="translate(14.615 30.05)" fill="none" stroke="#fff" stroke-linecap="round" stroke-linejoin="round" stroke-miterlimit="10" stroke-width="2"/>
  </g>
</svg>
