<svg xmlns="http://www.w3.org/2000/svg" width="56.244" height="38.942" viewBox="0 0 56.244 38.942">
  <g id="yatch-white" transform="translate(0.14 -15)">
    <path id="Path_11" data-name="Path 11" d="M54.828,44.818a6.124,6.124,0,0,1-2.07.332,10.654,10.654,0,0,1-6.212-1.918,11.017,11.017,0,0,1-12.422,0,11.017,11.017,0,0,1-12.422,0,10.651,10.651,0,0,1-6.21,1.918,10.651,10.651,0,0,1-6.21-1.918A10.654,10.654,0,0,1,3.07,45.15,13.415,13.415,0,0,1,1,44.985" transform="translate(0 3.307)" fill="none" stroke="#fff" stroke-linecap="round" stroke-linejoin="round" stroke-miterlimit="10" stroke-width="2"/>
    <path id="Path_12" data-name="Path 12" d="M54.828,48.818a6.124,6.124,0,0,1-2.07.332,10.654,10.654,0,0,1-6.212-1.918,11.017,11.017,0,0,1-12.422,0,11.017,11.017,0,0,1-12.422,0,10.651,10.651,0,0,1-6.21,1.918,10.651,10.651,0,0,1-6.21-1.918A10.654,10.654,0,0,1,3.07,49.15,13.415,13.415,0,0,1,1,48.985" transform="translate(0 3.792)" fill="none" stroke="#fff" stroke-linecap="round" stroke-linejoin="round" stroke-miterlimit="10" stroke-width="2"/>
    <path id="Path_13" data-name="Path 13" d="M44.486,31.259a1.05,1.05,0,0,1-1.031,1.065H41.2s-1.2-.067-1.2-1.1V29.762s.038-.433.732-.433.763.433.763.433v.9s.07.434.732.434.764-.434.764-.434v-.9s.07-.433.765-.433.73.433.73.433Z" transform="translate(4.736 1.618)" fill="#fff"/>
    <path id="Path_14" data-name="Path 14" d="M42.914,27.083,33.083,16H24.112l-2.243,6.729H16.262L10.655,16H6.169l2.243,5.607-3.8,5.677" transform="translate(0.438)" fill="none" stroke="#fff" stroke-linecap="round" stroke-linejoin="round" stroke-miterlimit="10" stroke-width="2"/>
    <line id="Line_14" data-name="Line 14" x2="33.783" transform="translate(6.887 28.336)" fill="none" stroke="#fff" stroke-linecap="round" stroke-linejoin="round" stroke-miterlimit="10" stroke-width="2"/>
    <path id="Path_15" data-name="Path 15" d="M36.485,46.556A23.855,23.855,0,0,0,54.749,28.728a2.1,2.1,0,0,0-.261-1.78,2.867,2.867,0,0,0-1.9-.949H42.493l-4.486,6.729H7.729L5.486,26H3.243A2.376,2.376,0,0,0,1,28.243v6.212A12.78,12.78,0,0,0,7.878,45.8" transform="translate(0 1.214)" fill="none" stroke="#fff" stroke-linecap="round" stroke-linejoin="round" stroke-miterlimit="10" stroke-width="2.002"/>
    <line id="Line_15" data-name="Line 15" x2="30.513" transform="translate(8.663 22.729)" fill="none" stroke="#fff" stroke-linecap="round" stroke-linejoin="round" stroke-miterlimit="10" stroke-width="2"/>
  </g>
</svg>
